<svg width="19" height="15" viewBox="0 0 19 15" fill="none" xmlns="http://www.w3.org/2000/svg">
<path d="M18.4238 5.06842C18.3679 5.0373 18.3046 5.02181 18.2407 5.02357C18.1767 5.02534 18.1144 5.04429 18.0603 5.07843L11.0185 9.48295C10.5062 9.801 9.91515 9.96954 9.31211 9.96954C8.70907 9.96954 8.11803 9.801 7.60569 9.48295L0.552455 5.07843C0.498351 5.04429 0.436051 5.02534 0.372096 5.02357C0.308142 5.02181 0.244892 5.0373 0.188989 5.06842C0.133112 5.09949 0.0865441 5.14492 0.0540933 5.20001C0.0216425 5.25511 0.00448522 5.31786 0.00439453 5.3818V12.1631C0.00439339 12.7317 0.229947 13.277 0.631556 13.6794C1.03317 14.0818 1.57802 14.3085 2.14655 14.3096H16.4562C17.0255 14.3096 17.5714 14.0835 17.974 13.6809C18.3765 13.2784 18.6027 12.7324 18.6027 12.1631V5.3818C18.6031 5.31843 18.5869 5.25605 18.5554 5.20101C18.524 5.14598 18.4786 5.10023 18.4238 5.06842Z" fill="#5D4FFF"/>
<path d="M16.4561 0H2.14645C1.57718 0 1.03122 0.226143 0.62868 0.62868C0.226143 1.03122 5.00468e-08 1.57718 5.00468e-08 2.14645C-1.77765e-05 2.16466 0.00472701 2.18256 0.0137635 2.19838C0.0228 2.21419 0.0358137 2.22737 0.0515145 2.2366L8.73319 7.66282C8.90479 7.77022 9.10314 7.82717 9.30557 7.82717C9.50801 7.82717 9.70636 7.77022 9.87796 7.66282L18.5611 2.2366C18.5746 2.22587 18.5853 2.21212 18.5925 2.19646C18.5997 2.1808 18.6032 2.16367 18.6026 2.14645C18.6026 1.57718 18.3764 1.03122 17.9739 0.62868C17.5713 0.226143 17.0254 0 16.4561 0Z" fill="#5D4FFF"/>
</svg>
